<?xml version="1.0" encoding="utf-8"?>
<!-- Generator: Adobe Illustrator 24.3.0, SVG Export Plug-In . SVG Version: 6.00 Build 0)  -->
<svg version="1.1" id="Layer_1" xmlns="http://www.w3.org/2000/svg" xmlns:xlink="http://www.w3.org/1999/xlink" x="0px" y="0px"
	 viewBox="0 0 575 322" style="enable-background:new 0 0 575 322;" xml:space="preserve">
<style type="text/css">
	.st0{clip-path:url(#SVGID_2_);fill:#ECEDEF;}
	.st1{clip-path:url(#SVGID_2_);}
	.st2{fill:url(#SVGID_3_);}
	.st3{fill:url(#SVGID_4_);}
	.st4{fill:#E1E1E3;}
	.st5{fill:#F6F7F8;}
	.st6{fill:url(#SVGID_5_);}
	.st7{fill:url(#SVGID_6_);}
	.st8{fill:url(#SVGID_7_);}
	.st9{fill:url(#SVGID_8_);}
	.st10{fill:url(#SVGID_9_);}
	.st11{fill:url(#SVGID_10_);}
	.st12{fill:url(#SVGID_11_);}
	.st13{fill:url(#SVGID_12_);}
	.st14{fill:url(#SVGID_13_);}
	.st15{fill:url(#SVGID_14_);}
	.st16{fill:url(#SVGID_15_);}
	.st17{fill:url(#SVGID_16_);}
	.st18{fill:url(#SVGID_17_);}
	.st19{fill:url(#SVGID_18_);}
	.st20{fill:url(#SVGID_19_);}
	.st21{fill:url(#SVGID_20_);}
	.st22{fill:url(#SVGID_21_);}
	.st23{fill:url(#SVGID_22_);}
	.st24{fill:url(#SVGID_23_);}
	.st25{fill:url(#SVGID_24_);}
	.st26{fill:url(#SVGID_25_);}
	.st27{fill:url(#SVGID_26_);}
	.st28{fill:url(#SVGID_27_);}
	.st29{fill:url(#SVGID_28_);}
	.st30{fill:url(#SVGID_29_);}
	.st31{fill:url(#SVGID_30_);}
	.st32{fill:url(#SVGID_31_);}
	.st33{fill:url(#SVGID_32_);}
	.st34{fill:url(#SVGID_33_);}
	.st35{fill:url(#SVGID_34_);}
	.st36{fill:url(#SVGID_35_);}
	.st37{fill:url(#SVGID_36_);}
	.st38{fill:url(#SVGID_37_);}
	.st39{fill:url(#SVGID_38_);}
	.st40{fill:url(#SVGID_39_);}
	.st41{fill:url(#SVGID_40_);}
	.st42{fill:url(#SVGID_41_);}
	.st43{fill:url(#SVGID_42_);}
	.st44{fill:url(#SVGID_43_);}
	.st45{fill:url(#SVGID_44_);}
	.st46{fill:url(#SVGID_45_);}
	.st47{fill:url(#SVGID_46_);}
	.st48{fill:url(#SVGID_47_);}
	.st49{fill:url(#SVGID_48_);}
	.st50{fill:url(#SVGID_49_);}
	.st51{fill:url(#SVGID_50_);}
	.st52{fill:url(#SVGID_51_);}
	.st53{fill:url(#SVGID_52_);}
	.st54{fill:url(#SVGID_53_);}
	.st55{fill:url(#SVGID_54_);}
	.st56{fill:url(#SVGID_55_);}
	.st57{fill:url(#SVGID_56_);}
	.st58{fill:url(#SVGID_57_);}
	.st59{fill:url(#SVGID_58_);}
	.st60{filter:url(#Adobe_OpacityMaskFilter);}
	.st61{clip-path:url(#SVGID_2_);fill:url(#SVGID_60_);stroke:#FFFFFF;stroke-width:0.1751;stroke-miterlimit:10;}
	.st62{clip-path:url(#SVGID_2_);mask:url(#SVGID_59_);}
	.st63{fill:#FFFFFF;}
</style>
<g>
	<defs>
		<rect id="SVGID_1_" x="1" width="573.7" height="321.3"/>
	</defs>
	<clipPath id="SVGID_2_">
		<use xlink:href="#SVGID_1_"  style="overflow:visible;"/>
	</clipPath>
	<rect x="-11.2" y="-16.7" class="st0" width="602.9" height="352"/>
	<g class="st1">
		<g>
			
				<radialGradient id="SVGID_3_" cx="9975.2344" cy="199.5658" r="24.7779" gradientTransform="matrix(-1.2771 0 0 0.8999 12772.1123 71.4587)" gradientUnits="userSpaceOnUse">
				<stop  offset="0" style="stop-color:#BFC7CB"/>
				<stop  offset="5.040109e-03" style="stop-color:#BFC7CC"/>
				<stop  offset="0.6672" style="stop-color:#EAEBEC"/>
				<stop  offset="1" style="stop-color:#FFFFFF"/>
			</radialGradient>
			<path class="st2" d="M1.1,251c0,12.3,14.2,22.3,31.6,22.3c17.5,0,31.6-10,31.6-22.3c0-12.3-14.2-22.3-31.6-22.3
				C15.3,228.8,1.1,238.7,1.1,251z"/>
			
				<radialGradient id="SVGID_4_" cx="9965.8691" cy="-7783.3423" r="23.8661" gradientTransform="matrix(-1.3103 0 0 0.3025 13091.0186 2605.8435)" gradientUnits="userSpaceOnUse">
				<stop  offset="0" style="stop-color:#C8CBCC"/>
				<stop  offset="0.5125" style="stop-color:#E3E4E4"/>
				<stop  offset="1" style="stop-color:#FFFFFF"/>
			</radialGradient>
			<path class="st3" d="M1.5,251.4c0,4,14,7.2,31.3,7.2c17.3,0,31.3-3.2,31.3-7.2c0-4-14-7.2-31.3-7.2
				C15.5,244.2,1.5,247.4,1.5,251.4z"/>
		</g>
		<g>
			<rect x="1" y="223.1" class="st4" width="31.9" height="31.9"/>
			<rect x="32.9" y="223.1" class="st5" width="31.9" height="31.9"/>
		</g>
	</g>
	<g class="st1">
		<g>
			
				<radialGradient id="SVGID_5_" cx="9950.2441" cy="164.9846" r="24.7779" gradientTransform="matrix(-1.2771 0 0 0.8999 12772.1123 71.4587)" gradientUnits="userSpaceOnUse">
				<stop  offset="0" style="stop-color:#B6C0C5"/>
				<stop  offset="0.124" style="stop-color:#BFC7CC"/>
				<stop  offset="0.707" style="stop-color:#EAEBEC"/>
				<stop  offset="1" style="stop-color:#FFFFFF"/>
			</radialGradient>
			<path class="st6" d="M33,219.9c0,12.3,14.2,22.3,31.6,22.3c17.5,0,31.6-10,31.6-22.3c0-12.3-14.2-22.3-31.6-22.3
				C47.2,197.6,33,207.6,33,219.9z"/>
			
				<radialGradient id="SVGID_6_" cx="9941.5117" cy="-7886.2168" r="23.8661" gradientTransform="matrix(-1.3103 0 0 0.3025 13091.0186 2605.8435)" gradientUnits="userSpaceOnUse">
				<stop  offset="0" style="stop-color:#C8CBCC"/>
				<stop  offset="0.5125" style="stop-color:#E3E4E4"/>
				<stop  offset="1" style="stop-color:#FFFFFF"/>
			</radialGradient>
			<path class="st7" d="M33.4,220.3c0,4,14,7.2,31.3,7.2c17.3,0,31.3-3.2,31.3-7.2c0-4-14-7.2-31.3-7.2
				C47.4,213,33.4,216.3,33.4,220.3z"/>
		</g>
		<g>
			<rect x="32.9" y="191.2" class="st4" width="31.9" height="31.9"/>
			<rect x="64.7" y="191.2" class="st5" width="31.9" height="31.9"/>
		</g>
	</g>
	<g class="st1">
		<g>
			
				<radialGradient id="SVGID_7_" cx="9975.1631" cy="128.7809" r="24.7779" gradientTransform="matrix(-1.2771 0 0 0.8999 12772.1123 71.4587)" gradientUnits="userSpaceOnUse">
				<stop  offset="0" style="stop-color:#ACB8BD"/>
				<stop  offset="0.2253" style="stop-color:#BFC7CC"/>
				<stop  offset="0.7408" style="stop-color:#EAEBEC"/>
				<stop  offset="1" style="stop-color:#FFFFFF"/>
			</radialGradient>
			<ellipse class="st8" cx="32.8" cy="187.3" rx="31.6" ry="22.3"/>
			
				<radialGradient id="SVGID_8_" cx="9965.7988" cy="-7993.9185" r="23.8661" gradientTransform="matrix(-1.3103 0 0 0.3025 13091.0186 2605.8435)" gradientUnits="userSpaceOnUse">
				<stop  offset="0" style="stop-color:#C8CBCC"/>
				<stop  offset="0.5125" style="stop-color:#E3E4E4"/>
				<stop  offset="1" style="stop-color:#FFFFFF"/>
			</radialGradient>
			<path class="st9" d="M1.6,187.7c0,4,14,7.2,31.3,7.2c17.3,0,31.3-3.2,31.3-7.2c0-4-14-7.2-31.3-7.2
				C15.6,180.5,1.6,183.7,1.6,187.7z"/>
		</g>
		<g>
			<rect x="1" y="159.4" class="st4" width="31.9" height="31.9"/>
			<rect x="32.9" y="159.4" class="st5" width="31.9" height="31.9"/>
		</g>
	</g>
	<g class="st1">
		<g>
			
				<radialGradient id="SVGID_9_" cx="9900.2109" cy="128.7809" r="24.7779" gradientTransform="matrix(-1.2771 0 0 0.8999 12772.1123 71.4587)" gradientUnits="userSpaceOnUse">
				<stop  offset="0" style="stop-color:#ACB8BD"/>
				<stop  offset="0.2253" style="stop-color:#BFC7CC"/>
				<stop  offset="0.7408" style="stop-color:#EAEBEC"/>
				<stop  offset="1" style="stop-color:#FFFFFF"/>
			</radialGradient>
			<ellipse class="st10" cx="128.6" cy="187.3" rx="31.6" ry="22.3"/>
			
				<radialGradient id="SVGID_10_" cx="9892.7461" cy="-7993.9185" r="23.8661" gradientTransform="matrix(-1.3103 0 0 0.3025 13091.0186 2605.8435)" gradientUnits="userSpaceOnUse">
				<stop  offset="0" style="stop-color:#C8CBCC"/>
				<stop  offset="0.5125" style="stop-color:#E3E4E4"/>
				<stop  offset="1" style="stop-color:#FFFFFF"/>
			</radialGradient>
			<ellipse class="st11" cx="128.6" cy="187.7" rx="31.3" ry="7.2"/>
		</g>
		<g>
			<rect x="96.6" y="159.4" class="st4" width="31.9" height="31.9"/>
			<rect x="128.5" y="159.4" class="st5" width="31.9" height="31.9"/>
		</g>
	</g>
	<g class="st1">
		<g>
			
				<radialGradient id="SVGID_11_" cx="9950.1758" cy="93.8821" r="24.778" gradientTransform="matrix(-1.2771 0 0 0.8999 12772.1123 71.4587)" gradientUnits="userSpaceOnUse">
				<stop  offset="0" style="stop-color:#ACB8BD"/>
				<stop  offset="0.2253" style="stop-color:#BFC7CC"/>
				<stop  offset="0.7408" style="stop-color:#EAEBEC"/>
				<stop  offset="1" style="stop-color:#FFFFFF"/>
			</radialGradient>
			<ellipse class="st12" cx="64.7" cy="155.9" rx="31.6" ry="22.3"/>
			
				<radialGradient id="SVGID_12_" cx="9941.4443" cy="-8097.7383" r="23.866" gradientTransform="matrix(-1.3103 0 0 0.3025 13091.0186 2605.8435)" gradientUnits="userSpaceOnUse">
				<stop  offset="0" style="stop-color:#C8CBCC"/>
				<stop  offset="0.5125" style="stop-color:#E3E4E4"/>
				<stop  offset="1" style="stop-color:#FFFFFF"/>
			</radialGradient>
			<path class="st13" d="M33.5,156.3c0,4,14,7.2,31.3,7.2c17.3,0,31.3-3.2,31.3-7.2c0-4-14-7.2-31.3-7.2
				C47.5,149.1,33.5,152.3,33.5,156.3z"/>
		</g>
		<g>
			<rect x="32.9" y="127.5" class="st4" width="31.9" height="31.9"/>
			<rect x="64.7" y="127.5" class="st5" width="31.9" height="31.9"/>
		</g>
	</g>
	<g class="st1">
		<g>
			
				<radialGradient id="SVGID_13_" cx="9875.2236" cy="93.8821" r="24.778" gradientTransform="matrix(-1.2771 0 0 0.8999 12772.1123 71.4587)" gradientUnits="userSpaceOnUse">
				<stop  offset="0" style="stop-color:#ACB8BD"/>
				<stop  offset="0.2253" style="stop-color:#BFC7CC"/>
				<stop  offset="0.7408" style="stop-color:#EAEBEC"/>
				<stop  offset="1" style="stop-color:#FFFFFF"/>
			</radialGradient>
			<ellipse class="st14" cx="160.5" cy="155.9" rx="31.6" ry="22.3"/>
			
				<radialGradient id="SVGID_14_" cx="9868.3916" cy="-8097.7383" r="23.866" gradientTransform="matrix(-1.3103 0 0 0.3025 13091.0186 2605.8435)" gradientUnits="userSpaceOnUse">
				<stop  offset="0" style="stop-color:#C8CBCC"/>
				<stop  offset="0.5125" style="stop-color:#E3E4E4"/>
				<stop  offset="1" style="stop-color:#FFFFFF"/>
			</radialGradient>
			<path class="st15" d="M129.2,156.3c0,4,14,7.2,31.3,7.2c17.3,0,31.3-3.2,31.3-7.2c0-4-14-7.2-31.3-7.2
				C143.2,149.1,129.2,152.3,129.2,156.3z"/>
		</g>
		<g>
			<rect x="128.5" y="127.5" class="st4" width="31.9" height="31.9"/>
			<rect x="160.4" y="127.5" class="st5" width="31.9" height="31.9"/>
		</g>
	</g>
	<g class="st1">
		<g>
			
				<radialGradient id="SVGID_15_" cx="9800.1387" cy="93.8821" r="24.778" gradientTransform="matrix(-1.2771 0 0 0.8999 12772.1123 71.4587)" gradientUnits="userSpaceOnUse">
				<stop  offset="0" style="stop-color:#B6C0C5"/>
				<stop  offset="0.124" style="stop-color:#BFC7CC"/>
				<stop  offset="0.707" style="stop-color:#EAEBEC"/>
				<stop  offset="1" style="stop-color:#FFFFFF"/>
			</radialGradient>
			<ellipse class="st16" cx="256.4" cy="155.9" rx="31.6" ry="22.3"/>
			
				<radialGradient id="SVGID_16_" cx="9795.21" cy="-8097.7383" r="23.866" gradientTransform="matrix(-1.3103 0 0 0.3025 13091.0186 2605.8435)" gradientUnits="userSpaceOnUse">
				<stop  offset="0" style="stop-color:#C8CBCC"/>
				<stop  offset="0.5125" style="stop-color:#E3E4E4"/>
				<stop  offset="1" style="stop-color:#FFFFFF"/>
			</radialGradient>
			<path class="st17" d="M225.1,156.3c0,4,14,7.2,31.3,7.2c17.3,0,31.3-3.2,31.3-7.2c0-4-14-7.2-31.3-7.2
				C239.1,149.1,225.1,152.3,225.1,156.3z"/>
		</g>
		<g>
			<rect x="224.1" y="127.5" class="st4" width="31.9" height="31.9"/>
			<rect x="256" y="127.5" class="st5" width="31.9" height="31.9"/>
		</g>
	</g>
	<g class="st1">
		<g>
			
				<radialGradient id="SVGID_17_" cx="9975.2051" cy="59.8624" r="24.778" gradientTransform="matrix(-1.2771 0 0 0.8999 12772.1123 71.4587)" gradientUnits="userSpaceOnUse">
				<stop  offset="0" style="stop-color:#ACB8BD"/>
				<stop  offset="0.2253" style="stop-color:#BFC7CC"/>
				<stop  offset="0.7408" style="stop-color:#EAEBEC"/>
				<stop  offset="1" style="stop-color:#FFFFFF"/>
			</radialGradient>
			<path class="st18" d="M1.1,125.3c0,12.3,14.2,22.3,31.6,22.3c17.5,0,31.6-10,31.6-22.3c0-12.3-14.2-22.3-31.6-22.3
				C15.3,103,1.1,113,1.1,125.3z"/>
			
				<radialGradient id="SVGID_18_" cx="9965.8398" cy="-8198.9424" r="23.8661" gradientTransform="matrix(-1.3103 0 0 0.3025 13091.0186 2605.8435)" gradientUnits="userSpaceOnUse">
				<stop  offset="0" style="stop-color:#C8CBCC"/>
				<stop  offset="0.5125" style="stop-color:#E3E4E4"/>
				<stop  offset="1" style="stop-color:#FFFFFF"/>
			</radialGradient>
			<path class="st19" d="M1.5,125.7c0,4,14,7.2,31.3,7.2c17.3,0,31.3-3.2,31.3-7.2c0-4-14-7.2-31.3-7.2
				C15.5,118.4,1.5,121.7,1.5,125.7z"/>
		</g>
		<g>
			<rect x="1" y="95.6" class="st4" width="31.9" height="31.9"/>
			<rect x="32.9" y="95.6" class="st5" width="31.9" height="31.9"/>
		</g>
	</g>
	<g class="st1">
		<g>
			
				<radialGradient id="SVGID_19_" cx="9900.3848" cy="59.8624" r="24.7779" gradientTransform="matrix(-1.2771 0 0 0.8999 12772.1123 71.4587)" gradientUnits="userSpaceOnUse">
				<stop  offset="0" style="stop-color:#ACB8BD"/>
				<stop  offset="0.2253" style="stop-color:#BFC7CC"/>
				<stop  offset="0.7408" style="stop-color:#EAEBEC"/>
				<stop  offset="1" style="stop-color:#FFFFFF"/>
			</radialGradient>
			<ellipse class="st20" cx="128.3" cy="125.3" rx="31.6" ry="22.3"/>
			
				<radialGradient id="SVGID_20_" cx="9892.916" cy="-8198.9424" r="23.8661" gradientTransform="matrix(-1.3103 0 0 0.3025 13091.0186 2605.8435)" gradientUnits="userSpaceOnUse">
				<stop  offset="0" style="stop-color:#C8CBCC"/>
				<stop  offset="0.5125" style="stop-color:#E3E4E4"/>
				<stop  offset="1" style="stop-color:#FFFFFF"/>
			</radialGradient>
			<ellipse class="st21" cx="128.3" cy="125.7" rx="31.3" ry="7.2"/>
		</g>
		<g>
			<rect x="96.6" y="95.6" class="st4" width="31.9" height="31.9"/>
			<rect x="128.5" y="95.6" class="st5" width="31.9" height="31.9"/>
		</g>
	</g>
	<g class="st1">
		<g>
			
				<radialGradient id="SVGID_21_" cx="9825.4326" cy="59.8624" r="24.778" gradientTransform="matrix(-1.2771 0 0 0.8999 12772.1123 71.4587)" gradientUnits="userSpaceOnUse">
				<stop  offset="0" style="stop-color:#ACB8BD"/>
				<stop  offset="0.2253" style="stop-color:#BFC7CC"/>
				<stop  offset="0.7408" style="stop-color:#EAEBEC"/>
				<stop  offset="1" style="stop-color:#FFFFFF"/>
			</radialGradient>
			<ellipse class="st22" cx="224.1" cy="125.3" rx="31.6" ry="22.3"/>
			
				<radialGradient id="SVGID_22_" cx="9819.8623" cy="-8198.9424" r="23.8661" gradientTransform="matrix(-1.3103 0 0 0.3025 13091.0186 2605.8435)" gradientUnits="userSpaceOnUse">
				<stop  offset="0" style="stop-color:#C8CBCC"/>
				<stop  offset="0.5125" style="stop-color:#E3E4E4"/>
				<stop  offset="1" style="stop-color:#FFFFFF"/>
			</radialGradient>
			<ellipse class="st23" cx="224.1" cy="125.7" rx="31.3" ry="7.2"/>
		</g>
		<g>
			<rect x="192.2" y="95.6" class="st4" width="31.9" height="31.9"/>
			<rect x="224.1" y="95.6" class="st5" width="31.9" height="31.9"/>
		</g>
	</g>
	<g class="st1">
		<g>
			
				<radialGradient id="SVGID_23_" cx="9750.4805" cy="59.8624" r="24.778" gradientTransform="matrix(-1.2771 0 0 0.8999 12772.1123 71.4587)" gradientUnits="userSpaceOnUse">
				<stop  offset="0" style="stop-color:#BFC7CB"/>
				<stop  offset="5.040109e-03" style="stop-color:#BFC7CC"/>
				<stop  offset="0.6672" style="stop-color:#EAEBEC"/>
				<stop  offset="1" style="stop-color:#FFFFFF"/>
			</radialGradient>
			<path class="st24" d="M288.1,125.3c0,12.3,14.2,22.3,31.6,22.3c17.5,0,31.6-10,31.6-22.3c0-12.3-14.2-22.3-31.6-22.3
				C302.3,103,288.1,113,288.1,125.3z"/>
			
				<radialGradient id="SVGID_24_" cx="9746.8096" cy="-8198.9424" r="23.8661" gradientTransform="matrix(-1.3103 0 0 0.3025 13091.0186 2605.8435)" gradientUnits="userSpaceOnUse">
				<stop  offset="0" style="stop-color:#C8CBCC"/>
				<stop  offset="0.5125" style="stop-color:#E3E4E4"/>
				<stop  offset="1" style="stop-color:#FFFFFF"/>
			</radialGradient>
			<path class="st25" d="M288.5,125.7c0,4,14,7.2,31.3,7.2c17.3,0,31.3-3.2,31.3-7.2c0-4-14-7.2-31.3-7.2
				C302.5,118.4,288.5,121.7,288.5,125.7z"/>
		</g>
		<g>
			<rect x="287.8" y="95.6" class="st4" width="31.9" height="31.9"/>
			<rect x="319.7" y="95.6" class="st5" width="31.9" height="31.9"/>
		</g>
	</g>
	<g class="st1">
		<g>
			
				<radialGradient id="SVGID_25_" cx="9950.1758" cy="24.3417" r="24.778" gradientTransform="matrix(-1.2771 0 0 0.8999 12772.1123 71.4587)" gradientUnits="userSpaceOnUse">
				<stop  offset="0" style="stop-color:#ACB8BD"/>
				<stop  offset="0.2253" style="stop-color:#BFC7CC"/>
				<stop  offset="0.7408" style="stop-color:#EAEBEC"/>
				<stop  offset="1" style="stop-color:#FFFFFF"/>
			</radialGradient>
			<ellipse class="st26" cx="64.7" cy="93.4" rx="31.6" ry="22.3"/>
			
				<radialGradient id="SVGID_26_" cx="9941.4443" cy="-8304.6123" r="23.8661" gradientTransform="matrix(-1.3103 0 0 0.3025 13091.0186 2605.8435)" gradientUnits="userSpaceOnUse">
				<stop  offset="0" style="stop-color:#C8CBCC"/>
				<stop  offset="0.5125" style="stop-color:#E3E4E4"/>
				<stop  offset="1" style="stop-color:#FFFFFF"/>
			</radialGradient>
			<path class="st27" d="M33.5,93.7c0,4,14,7.2,31.3,7.2c17.3,0,31.3-3.2,31.3-7.2c0-4-14-7.2-31.3-7.2
				C47.5,86.5,33.5,89.7,33.5,93.7z"/>
		</g>
		<g>
			<rect x="32.9" y="63.7" class="st4" width="31.9" height="31.9"/>
			<rect x="64.7" y="63.7" class="st5" width="31.9" height="31.9"/>
		</g>
	</g>
	<g class="st1">
		<g>
			
				<radialGradient id="SVGID_27_" cx="9875.2637" cy="24.3417" r="24.778" gradientTransform="matrix(-1.2771 0 0 0.8999 12772.1123 71.4587)" gradientUnits="userSpaceOnUse">
				<stop  offset="0" style="stop-color:#ACB8BD"/>
				<stop  offset="0.2253" style="stop-color:#BFC7CC"/>
				<stop  offset="0.7408" style="stop-color:#EAEBEC"/>
				<stop  offset="1" style="stop-color:#FFFFFF"/>
			</radialGradient>
			<ellipse class="st28" cx="160.4" cy="93.4" rx="31.6" ry="22.3"/>
			
				<radialGradient id="SVGID_28_" cx="9868.4307" cy="-8304.6123" r="23.8661" gradientTransform="matrix(-1.3103 0 0 0.3025 13091.0186 2605.8435)" gradientUnits="userSpaceOnUse">
				<stop  offset="0" style="stop-color:#C8CBCC"/>
				<stop  offset="0.5125" style="stop-color:#E3E4E4"/>
				<stop  offset="1" style="stop-color:#FFFFFF"/>
			</radialGradient>
			<ellipse class="st29" cx="160.4" cy="93.7" rx="31.3" ry="7.2"/>
		</g>
		<g>
			<rect x="128.5" y="63.7" class="st4" width="31.9" height="31.9"/>
			<rect x="160.4" y="63.7" class="st5" width="31.9" height="31.9"/>
		</g>
	</g>
	<g class="st1">
		<g>
			
				<radialGradient id="SVGID_29_" cx="9800.7041" cy="24.3417" r="24.778" gradientTransform="matrix(-1.2771 0 0 0.8999 12772.1123 71.4587)" gradientUnits="userSpaceOnUse">
				<stop  offset="0" style="stop-color:#ACB8BD"/>
				<stop  offset="0.2253" style="stop-color:#BFC7CC"/>
				<stop  offset="0.7408" style="stop-color:#EAEBEC"/>
				<stop  offset="1" style="stop-color:#FFFFFF"/>
			</radialGradient>
			<path class="st30" d="M224,93.4c0,12.3,14.2,22.3,31.6,22.3c17.5,0,31.6-10,31.6-22.3c0-12.3-14.2-22.3-31.6-22.3
				C238.2,71.1,224,81,224,93.4z"/>
			
				<radialGradient id="SVGID_30_" cx="9795.7607" cy="-8304.6123" r="23.8661" gradientTransform="matrix(-1.3103 0 0 0.3025 13091.0186 2605.8435)" gradientUnits="userSpaceOnUse">
				<stop  offset="0" style="stop-color:#C8CBCC"/>
				<stop  offset="0.5125" style="stop-color:#E3E4E4"/>
				<stop  offset="1" style="stop-color:#FFFFFF"/>
			</radialGradient>
			<path class="st31" d="M224.4,93.7c0,4,14,7.2,31.3,7.2c17.3,0,31.3-3.2,31.3-7.2c0-4-14-7.2-31.3-7.2
				C238.4,86.5,224.4,89.7,224.4,93.7z"/>
		</g>
		<g>
			<rect x="224.1" y="63.7" class="st4" width="31.9" height="31.9"/>
			<rect x="256" y="63.7" class="st5" width="31.9" height="31.9"/>
		</g>
	</g>
	<g class="st1">
		<g>
			
				<radialGradient id="SVGID_31_" cx="9725.2637" cy="24.3417" r="24.778" gradientTransform="matrix(-1.2771 0 0 0.8999 12772.1123 71.4587)" gradientUnits="userSpaceOnUse">
				<stop  offset="0" style="stop-color:#ACB8BD"/>
				<stop  offset="0.2253" style="stop-color:#BFC7CC"/>
				<stop  offset="0.7408" style="stop-color:#EAEBEC"/>
				<stop  offset="1" style="stop-color:#FFFFFF"/>
			</radialGradient>
			<path class="st32" d="M320.3,93.4c0,12.3,14.2,22.3,31.6,22.3c17.5,0,31.6-10,31.6-22.3c0-12.3-14.2-22.3-31.6-22.3
				C334.5,71.1,320.3,81,320.3,93.4z"/>
			
				<radialGradient id="SVGID_32_" cx="9722.2314" cy="-8304.6123" r="23.8661" gradientTransform="matrix(-1.3103 0 0 0.3025 13091.0186 2605.8435)" gradientUnits="userSpaceOnUse">
				<stop  offset="0" style="stop-color:#C8CBCC"/>
				<stop  offset="0.5125" style="stop-color:#E3E4E4"/>
				<stop  offset="1" style="stop-color:#FFFFFF"/>
			</radialGradient>
			<ellipse class="st33" cx="352" cy="93.7" rx="31.3" ry="7.2"/>
		</g>
		<g>
			<rect x="319.7" y="63.7" class="st4" width="31.9" height="31.9"/>
			<rect x="351.6" y="63.7" class="st5" width="31.9" height="31.9"/>
		</g>
	</g>
	<g class="st1">
		<g>
			
				<radialGradient id="SVGID_33_" cx="9650.8809" cy="24.3417" r="24.778" gradientTransform="matrix(-1.2771 0 0 0.8999 12772.1123 71.4587)" gradientUnits="userSpaceOnUse">
				<stop  offset="0" style="stop-color:#BFC7CB"/>
				<stop  offset="5.040109e-03" style="stop-color:#BFC7CC"/>
				<stop  offset="0.6672" style="stop-color:#EAEBEC"/>
				<stop  offset="1" style="stop-color:#FFFFFF"/>
			</radialGradient>
			<path class="st34" d="M415.3,93.4c0,12.3,14.2,22.3,31.6,22.3c17.5,0,31.6-10,31.6-22.3c0-12.3-14.2-22.3-31.6-22.3
				C429.5,71.1,415.3,81,415.3,93.4z"/>
			
				<radialGradient id="SVGID_34_" cx="9649.7334" cy="-8304.6123" r="23.8661" gradientTransform="matrix(-1.3103 0 0 0.3025 13091.0186 2605.8435)" gradientUnits="userSpaceOnUse">
				<stop  offset="0" style="stop-color:#C8CBCC"/>
				<stop  offset="0.5125" style="stop-color:#E3E4E4"/>
				<stop  offset="1" style="stop-color:#FFFFFF"/>
			</radialGradient>
			<path class="st35" d="M415.7,93.7c0,4,14,7.2,31.3,7.2c17.3,0,31.3-3.2,31.3-7.2c0-4-14-7.2-31.3-7.2
				C429.7,86.5,415.7,89.7,415.7,93.7z"/>
		</g>
		<g>
			<rect x="415.3" y="63.7" class="st4" width="31.9" height="31.9"/>
			<rect x="447.2" y="63.7" class="st5" width="31.9" height="31.9"/>
		</g>
	</g>
	<g class="st1">
		<g>
			
				<radialGradient id="SVGID_35_" cx="9975.2051" cy="-10.9714" r="24.778" gradientTransform="matrix(-1.2771 0 0 0.8999 12772.1123 71.4587)" gradientUnits="userSpaceOnUse">
				<stop  offset="0" style="stop-color:#ACB8BD"/>
				<stop  offset="0.2253" style="stop-color:#BFC7CC"/>
				<stop  offset="0.7408" style="stop-color:#EAEBEC"/>
				<stop  offset="1" style="stop-color:#FFFFFF"/>
			</radialGradient>
			<path class="st36" d="M1.1,61.6c0,12.3,14.2,22.3,31.6,22.3c17.5,0,31.6-10,31.6-22.3c0-12.3-14.2-22.3-31.6-22.3
				C15.3,39.3,1.1,49.3,1.1,61.6z"/>
			
				<radialGradient id="SVGID_36_" cx="9965.8398" cy="-8409.6641" r="23.8661" gradientTransform="matrix(-1.3103 0 0 0.3025 13091.0186 2605.8435)" gradientUnits="userSpaceOnUse">
				<stop  offset="0" style="stop-color:#C8CBCC"/>
				<stop  offset="0.5125" style="stop-color:#E3E4E4"/>
				<stop  offset="1" style="stop-color:#FFFFFF"/>
			</radialGradient>
			<path class="st37" d="M1.5,61.9c0,4,14,7.2,31.3,7.2c17.3,0,31.3-3.2,31.3-7.2c0-4-14-7.2-31.3-7.2C15.5,54.7,1.5,57.9,1.5,61.9z
				"/>
		</g>
		<g>
			<rect x="1" y="31.9" class="st4" width="31.9" height="31.9"/>
			<rect x="32.9" y="31.9" class="st5" width="31.9" height="31.9"/>
		</g>
	</g>
	<g class="st1">
		<g>
			
				<radialGradient id="SVGID_37_" cx="9900.3848" cy="-10.9714" r="24.7779" gradientTransform="matrix(-1.2771 0 0 0.8999 12772.1123 71.4587)" gradientUnits="userSpaceOnUse">
				<stop  offset="0" style="stop-color:#ACB8BD"/>
				<stop  offset="0.2253" style="stop-color:#BFC7CC"/>
				<stop  offset="0.7408" style="stop-color:#EAEBEC"/>
				<stop  offset="1" style="stop-color:#FFFFFF"/>
			</radialGradient>
			<ellipse class="st38" cx="128.3" cy="61.6" rx="31.6" ry="22.3"/>
			
				<radialGradient id="SVGID_38_" cx="9892.916" cy="-8409.6641" r="23.8661" gradientTransform="matrix(-1.3103 0 0 0.3025 13091.0186 2605.8435)" gradientUnits="userSpaceOnUse">
				<stop  offset="0" style="stop-color:#C8CBCC"/>
				<stop  offset="0.5125" style="stop-color:#E3E4E4"/>
				<stop  offset="1" style="stop-color:#FFFFFF"/>
			</radialGradient>
			<ellipse class="st39" cx="128.3" cy="61.9" rx="31.3" ry="7.2"/>
		</g>
		<g>
			<rect x="96.6" y="31.9" class="st4" width="31.9" height="31.9"/>
			<rect x="128.5" y="31.9" class="st5" width="31.9" height="31.9"/>
		</g>
	</g>
	<g class="st1">
		<g>
			
				<radialGradient id="SVGID_39_" cx="9825.4326" cy="-10.9714" r="24.778" gradientTransform="matrix(-1.2771 0 0 0.8999 12772.1123 71.4587)" gradientUnits="userSpaceOnUse">
				<stop  offset="0" style="stop-color:#ACB8BD"/>
				<stop  offset="0.2253" style="stop-color:#BFC7CC"/>
				<stop  offset="0.7408" style="stop-color:#EAEBEC"/>
				<stop  offset="1" style="stop-color:#FFFFFF"/>
			</radialGradient>
			<ellipse class="st40" cx="224.1" cy="61.6" rx="31.6" ry="22.3"/>
			
				<radialGradient id="SVGID_40_" cx="9819.8623" cy="-8409.6641" r="23.8661" gradientTransform="matrix(-1.3103 0 0 0.3025 13091.0186 2605.8435)" gradientUnits="userSpaceOnUse">
				<stop  offset="0" style="stop-color:#C8CBCC"/>
				<stop  offset="0.5125" style="stop-color:#E3E4E4"/>
				<stop  offset="1" style="stop-color:#FFFFFF"/>
			</radialGradient>
			<ellipse class="st41" cx="224.1" cy="61.9" rx="31.3" ry="7.2"/>
		</g>
		<g>
			<rect x="192.2" y="31.9" class="st4" width="31.9" height="31.9"/>
			<rect x="224.1" y="31.9" class="st5" width="31.9" height="31.9"/>
		</g>
	</g>
	<g class="st1">
		<g>
			
				<radialGradient id="SVGID_41_" cx="9750.4805" cy="-10.9714" r="24.778" gradientTransform="matrix(-1.2771 0 0 0.8999 12772.1123 71.4587)" gradientUnits="userSpaceOnUse">
				<stop  offset="0" style="stop-color:#ACB8BD"/>
				<stop  offset="0.2253" style="stop-color:#BFC7CC"/>
				<stop  offset="0.7408" style="stop-color:#EAEBEC"/>
				<stop  offset="1" style="stop-color:#FFFFFF"/>
			</radialGradient>
			<path class="st42" d="M288.1,61.6c0,12.3,14.2,22.3,31.6,22.3c17.5,0,31.6-10,31.6-22.3c0-12.3-14.2-22.3-31.6-22.3
				C302.3,39.3,288.1,49.3,288.1,61.6z"/>
			
				<radialGradient id="SVGID_42_" cx="9746.8096" cy="-8409.6641" r="23.8661" gradientTransform="matrix(-1.3103 0 0 0.3025 13091.0186 2605.8435)" gradientUnits="userSpaceOnUse">
				<stop  offset="0" style="stop-color:#C8CBCC"/>
				<stop  offset="0.5125" style="stop-color:#E3E4E4"/>
				<stop  offset="1" style="stop-color:#FFFFFF"/>
			</radialGradient>
			<path class="st43" d="M288.5,61.9c0,4,14,7.2,31.3,7.2c17.3,0,31.3-3.2,31.3-7.2c0-4-14-7.2-31.3-7.2
				C302.5,54.7,288.5,57.9,288.5,61.9z"/>
		</g>
		<g>
			<rect x="287.8" y="31.9" class="st4" width="31.9" height="31.9"/>
			<rect x="319.7" y="31.9" class="st5" width="31.9" height="31.9"/>
		</g>
	</g>
	<g class="st1">
		<g>
			
				<radialGradient id="SVGID_43_" cx="9675.793" cy="-10.9714" r="24.778" gradientTransform="matrix(-1.2771 0 0 0.8999 12772.1123 71.4587)" gradientUnits="userSpaceOnUse">
				<stop  offset="0" style="stop-color:#BFC7CB"/>
				<stop  offset="5.040109e-03" style="stop-color:#BFC7CC"/>
				<stop  offset="0.6672" style="stop-color:#EAEBEC"/>
				<stop  offset="1" style="stop-color:#FFFFFF"/>
			</radialGradient>
			<ellipse class="st44" cx="415.2" cy="61.6" rx="31.6" ry="22.3"/>
			
				<radialGradient id="SVGID_44_" cx="9674.0146" cy="-8409.6641" r="23.8661" gradientTransform="matrix(-1.3103 0 0 0.3025 13091.0186 2605.8435)" gradientUnits="userSpaceOnUse">
				<stop  offset="0" style="stop-color:#C8CBCC"/>
				<stop  offset="0.5125" style="stop-color:#E3E4E4"/>
				<stop  offset="1" style="stop-color:#FFFFFF"/>
			</radialGradient>
			<ellipse class="st45" cx="415.2" cy="61.9" rx="31.3" ry="7.2"/>
		</g>
		<g>
			<rect x="383.5" y="31.9" class="st4" width="31.9" height="31.9"/>
			<rect x="415.3" y="31.9" class="st5" width="31.9" height="31.9"/>
		</g>
	</g>
	<g class="st1">
		<g>
			
				<radialGradient id="SVGID_45_" cx="9950.1758" cy="-46.492" r="24.7779" gradientTransform="matrix(-1.2771 0 0 0.8999 12772.1123 71.4587)" gradientUnits="userSpaceOnUse">
				<stop  offset="0" style="stop-color:#ACB8BD"/>
				<stop  offset="0.2253" style="stop-color:#BFC7CC"/>
				<stop  offset="0.7408" style="stop-color:#EAEBEC"/>
				<stop  offset="1" style="stop-color:#FFFFFF"/>
			</radialGradient>
			<ellipse class="st46" cx="64.7" cy="29.6" rx="31.6" ry="22.3"/>
			
				<radialGradient id="SVGID_46_" cx="9941.4443" cy="-8515.334" r="23.866" gradientTransform="matrix(-1.3103 0 0 0.3025 13091.0186 2605.8435)" gradientUnits="userSpaceOnUse">
				<stop  offset="0" style="stop-color:#C8CBCC"/>
				<stop  offset="0.5125" style="stop-color:#E3E4E4"/>
				<stop  offset="1" style="stop-color:#FFFFFF"/>
			</radialGradient>
			<path class="st47" d="M33.5,30c0,4,14,7.2,31.3,7.2C82,37.2,96,33.9,96,30c0-4-14-7.2-31.3-7.2C47.5,22.7,33.5,26,33.5,30z"/>
		</g>
		<g>
			<rect x="32.9" class="st4" width="31.9" height="31.9"/>
			<rect x="64.7" class="st5" width="31.9" height="31.9"/>
		</g>
	</g>
	<g class="st1">
		<g>
			
				<radialGradient id="SVGID_47_" cx="9875.2637" cy="-46.492" r="24.7779" gradientTransform="matrix(-1.2771 0 0 0.8999 12772.1123 71.4587)" gradientUnits="userSpaceOnUse">
				<stop  offset="0" style="stop-color:#ACB8BD"/>
				<stop  offset="0.2253" style="stop-color:#BFC7CC"/>
				<stop  offset="0.7408" style="stop-color:#EAEBEC"/>
				<stop  offset="1" style="stop-color:#FFFFFF"/>
			</radialGradient>
			<ellipse class="st48" cx="160.4" cy="29.6" rx="31.6" ry="22.3"/>
			
				<radialGradient id="SVGID_48_" cx="9868.4307" cy="-8515.334" r="23.866" gradientTransform="matrix(-1.3103 0 0 0.3025 13091.0186 2605.8435)" gradientUnits="userSpaceOnUse">
				<stop  offset="0" style="stop-color:#C8CBCC"/>
				<stop  offset="0.5125" style="stop-color:#E3E4E4"/>
				<stop  offset="1" style="stop-color:#FFFFFF"/>
			</radialGradient>
			<path class="st49" d="M129.1,30c0,4,14,7.2,31.3,7.2c17.3,0,31.3-3.2,31.3-7.2c0-4-14-7.2-31.3-7.2C143.1,22.7,129.1,26,129.1,30
				z"/>
		</g>
		<g>
			<rect x="128.5" class="st4" width="31.9" height="31.9"/>
			<rect x="160.4" class="st5" width="31.9" height="31.9"/>
		</g>
	</g>
	<g class="st1">
		<g>
			
				<radialGradient id="SVGID_49_" cx="9800.7041" cy="-46.492" r="24.7779" gradientTransform="matrix(-1.2771 0 0 0.8999 12772.1123 71.4587)" gradientUnits="userSpaceOnUse">
				<stop  offset="0" style="stop-color:#ACB8BD"/>
				<stop  offset="0.2253" style="stop-color:#BFC7CC"/>
				<stop  offset="0.7408" style="stop-color:#EAEBEC"/>
				<stop  offset="1" style="stop-color:#FFFFFF"/>
			</radialGradient>
			<path class="st50" d="M224,29.6c0,12.3,14.2,22.3,31.6,22.3c17.5,0,31.6-10,31.6-22.3c0-12.3-14.2-22.3-31.6-22.3
				C238.2,7.3,224,17.3,224,29.6z"/>
			
				<radialGradient id="SVGID_50_" cx="9795.7607" cy="-8515.334" r="23.866" gradientTransform="matrix(-1.3103 0 0 0.3025 13091.0186 2605.8435)" gradientUnits="userSpaceOnUse">
				<stop  offset="0" style="stop-color:#C8CBCC"/>
				<stop  offset="0.5125" style="stop-color:#E3E4E4"/>
				<stop  offset="1" style="stop-color:#FFFFFF"/>
			</radialGradient>
			<path class="st51" d="M224.4,30c0,4,14,7.2,31.3,7.2c17.3,0,31.3-3.2,31.3-7.2c0-4-14-7.2-31.3-7.2C238.4,22.7,224.4,26,224.4,30
				z"/>
		</g>
		<g>
			<rect x="224.1" class="st4" width="31.9" height="31.9"/>
			<rect x="256" class="st5" width="31.9" height="31.9"/>
		</g>
	</g>
	<g class="st1">
		<g>
			
				<radialGradient id="SVGID_51_" cx="9725.2637" cy="-46.492" r="24.7779" gradientTransform="matrix(-1.2771 0 0 0.8999 12772.1123 71.4587)" gradientUnits="userSpaceOnUse">
				<stop  offset="0" style="stop-color:#ACB8BD"/>
				<stop  offset="0.2253" style="stop-color:#BFC7CC"/>
				<stop  offset="0.7408" style="stop-color:#EAEBEC"/>
				<stop  offset="1" style="stop-color:#FFFFFF"/>
			</radialGradient>
			<path class="st52" d="M320.3,29.6c0,12.3,14.2,22.3,31.6,22.3c17.5,0,31.6-10,31.6-22.3c0-12.3-14.2-22.3-31.6-22.3
				C334.5,7.3,320.3,17.3,320.3,29.6z"/>
			
				<radialGradient id="SVGID_52_" cx="9722.2314" cy="-8515.334" r="23.866" gradientTransform="matrix(-1.3103 0 0 0.3025 13091.0186 2605.8435)" gradientUnits="userSpaceOnUse">
				<stop  offset="0" style="stop-color:#C8CBCC"/>
				<stop  offset="0.5125" style="stop-color:#E3E4E4"/>
				<stop  offset="1" style="stop-color:#FFFFFF"/>
			</radialGradient>
			<path class="st53" d="M320.7,30c0,4,14,7.2,31.3,7.2c17.3,0,31.3-3.2,31.3-7.2c0-4-14-7.2-31.3-7.2C334.7,22.7,320.7,26,320.7,30
				z"/>
		</g>
		<g>
			<rect x="319.7" class="st4" width="31.9" height="31.9"/>
			<rect x="351.6" class="st5" width="31.9" height="31.9"/>
		</g>
	</g>
	<g class="st1">
		<g>
			
				<radialGradient id="SVGID_53_" cx="9650.8809" cy="-46.492" r="24.7779" gradientTransform="matrix(-1.2771 0 0 0.8999 12772.1123 71.4587)" gradientUnits="userSpaceOnUse">
				<stop  offset="0" style="stop-color:#ACB8BD"/>
				<stop  offset="0.2253" style="stop-color:#BFC7CC"/>
				<stop  offset="0.7408" style="stop-color:#EAEBEC"/>
				<stop  offset="1" style="stop-color:#FFFFFF"/>
			</radialGradient>
			<path class="st54" d="M415.3,29.6c0,12.3,14.2,22.3,31.6,22.3c17.5,0,31.6-10,31.6-22.3c0-12.3-14.2-22.3-31.6-22.3
				C429.5,7.3,415.3,17.3,415.3,29.6z"/>
			
				<radialGradient id="SVGID_54_" cx="9649.7334" cy="-8515.334" r="23.866" gradientTransform="matrix(-1.3103 0 0 0.3025 13091.0186 2605.8435)" gradientUnits="userSpaceOnUse">
				<stop  offset="0" style="stop-color:#C8CBCC"/>
				<stop  offset="0.5125" style="stop-color:#E3E4E4"/>
				<stop  offset="1" style="stop-color:#FFFFFF"/>
			</radialGradient>
			<path class="st55" d="M415.7,30c0,4,14,7.2,31.3,7.2c17.3,0,31.3-3.2,31.3-7.2c0-4-14-7.2-31.3-7.2C429.7,22.7,415.7,26,415.7,30
				z"/>
		</g>
		<g>
			<rect x="415.3" class="st4" width="31.9" height="31.9"/>
			<rect x="447.2" class="st5" width="31.9" height="31.9"/>
		</g>
	</g>
	<g class="st1">
		<g>
			
				<radialGradient id="SVGID_55_" cx="9600.9238" cy="-10.9714" r="24.7779" gradientTransform="matrix(-1.2771 0 0 0.8999 12772.1123 71.4587)" gradientUnits="userSpaceOnUse">
				<stop  offset="0" style="stop-color:#BFC7CB"/>
				<stop  offset="5.040109e-03" style="stop-color:#BFC7CC"/>
				<stop  offset="0.6672" style="stop-color:#EAEBEC"/>
				<stop  offset="1" style="stop-color:#FFFFFF"/>
			</radialGradient>
			<path class="st56" d="M479.1,61.6c0,12.3,14.2,22.3,31.6,22.3c17.5,0,31.6-10,31.6-22.3c0-12.3-14.2-22.3-31.6-22.3
				C493.3,39.3,479.1,49.3,479.1,61.6z"/>
			
				<radialGradient id="SVGID_56_" cx="9601.043" cy="-8409.6641" r="23.8661" gradientTransform="matrix(-1.3103 0 0 0.3025 13091.0186 2605.8435)" gradientUnits="userSpaceOnUse">
				<stop  offset="0" style="stop-color:#C8CBCC"/>
				<stop  offset="0.5125" style="stop-color:#E3E4E4"/>
				<stop  offset="1" style="stop-color:#FFFFFF"/>
			</radialGradient>
			<path class="st57" d="M479.5,61.9c0,4,14,7.2,31.3,7.2c17.3,0,31.3-3.2,31.3-7.2c0-4-14-7.2-31.3-7.2
				C493.5,54.7,479.5,57.9,479.5,61.9z"/>
		</g>
		<g>
			<rect x="479.1" y="31.9" class="st4" width="31.9" height="31.9"/>
			<rect x="510.9" y="31.9" class="st5" width="31.9" height="31.9"/>
		</g>
	</g>
	<g class="st1">
		<g>
			
				<radialGradient id="SVGID_57_" cx="9576.0117" cy="-46.492" r="24.7779" gradientTransform="matrix(-1.2771 0 0 0.8999 12772.1123 71.4587)" gradientUnits="userSpaceOnUse">
				<stop  offset="0" style="stop-color:#ACB8BD"/>
				<stop  offset="0.2253" style="stop-color:#BFC7CC"/>
				<stop  offset="0.7408" style="stop-color:#EAEBEC"/>
				<stop  offset="1" style="stop-color:#FFFFFF"/>
			</radialGradient>
			<ellipse class="st58" cx="542.6" cy="29.6" rx="31.6" ry="22.3"/>
			
				<radialGradient id="SVGID_58_" cx="9576.7617" cy="-8515.334" r="23.866" gradientTransform="matrix(-1.3103 0 0 0.3025 13091.0186 2605.8435)" gradientUnits="userSpaceOnUse">
				<stop  offset="0" style="stop-color:#C8CBCC"/>
				<stop  offset="0.5125" style="stop-color:#E3E4E4"/>
				<stop  offset="1" style="stop-color:#FFFFFF"/>
			</radialGradient>
			<path class="st59" d="M511.3,30c0,4,14,7.2,31.3,7.2c17.3,0,31.3-3.2,31.3-7.2c0-4-14-7.2-31.3-7.2C525.3,22.7,511.3,26,511.3,30
				z"/>
		</g>
		<g>
			<rect x="510.9" class="st4" width="31.9" height="31.9"/>
			<rect x="542.8" class="st5" width="31.9" height="31.9"/>
		</g>
	</g>
	<defs>
		<filter id="Adobe_OpacityMaskFilter" filterUnits="userSpaceOnUse" x="-7.7" y="-7.3" width="593" height="340.2">
			<feColorMatrix  type="matrix" values="1 0 0 0 0  0 1 0 0 0  0 0 1 0 0  0 0 0 1 0"/>
		</filter>
	</defs>
	<mask maskUnits="userSpaceOnUse" x="-7.7" y="-7.3" width="593" height="340.2" id="SVGID_59_">
		<g class="st60">
			<linearGradient id="SVGID_60_" gradientUnits="userSpaceOnUse" x1="412.0988" y1="495.8282" x2="308.0584" y2="214.7842">
				<stop  offset="0" style="stop-color:#FFFFFF"/>
				<stop  offset="0.1018" style="stop-color:#EDEEEE"/>
				<stop  offset="0.3055" style="stop-color:#C6C8CA"/>
				<stop  offset="0.5925" style="stop-color:#8B8D90"/>
				<stop  offset="0.9485" style="stop-color:#2E2E2F"/>
				<stop  offset="1" style="stop-color:#000000"/>
			</linearGradient>
			<rect x="-7.6" y="-7.2" class="st61" width="592.8" height="340"/>
		</g>
	</mask>
	<g class="st62">
		<rect x="-7.6" y="-7.2" class="st63" width="592.8" height="340"/>
		<path class="st63" d="M585.3,332.9h-593V-7.3h593V332.9z M-7.5,332.7h592.6V-7.1H-7.5V332.7z"/>
	</g>
</g>
</svg>
